HIERARCHY
ROOT Hips
{
	OFFSET 0 0 0
	CHANNELS 6 Xposition Yposition Zposition Yrotation Xrotation Zrotation
	JOINT Spine
	{
		OFFSET -0 8.37147 -2.66841
		CHANNELS 3 Yrotation Xrotation Zrotation
		JOINT Spine1
		{
			OFFSET -0 8.81736 0
			CHANNELS 3 Yrotation Xrotation Zrotation
			JOINT Spine2
			{
				OFFSET -0 8.81736 0
				CHANNELS 3 Yrotation Xrotation Zrotation
				JOINT Spine3
				{
					OFFSET -0 8.81736 0
					CHANNELS 3 Yrotation Xrotation Zrotation
					JOINT Neck
					{
						OFFSET -0 20.2165 3.66841
						CHANNELS 3 Yrotation Xrotation Zrotation
						JOINT Head
						{
							OFFSET -0 10.4643 0
							CHANNELS 3 Yrotation Xrotation Zrotation
							End Site
							{
								OFFSET 0 15 0
							}
						}
					}
					JOINT LeftShoulder
					{
						OFFSET 1.74406 7.24 3.48811
						CHANNELS 3 Yrotation Xrotation Zrotation
						JOINT LeftArm
						{
							OFFSET 15.166 0 0
							CHANNELS 3 Yrotation Xrotation Zrotation
							JOINT LeftForeArm
							{
								OFFSET 25.1836 0 0
								CHANNELS 3 Yrotation Xrotation Zrotation
								JOINT LeftHand
								{
									OFFSET 23.8595 0 0
									CHANNELS 3 Yrotation Xrotation Zrotation
									End Site
									{
										OFFSET 15 0 0
									}
								}
							}
						}
					}
					JOINT RightShoulder
					{
						OFFSET -1.74406 7.24 3.48811
						CHANNELS 3 Yrotation Xrotation Zrotation
						JOINT RightArm
						{
							OFFSET -15.166 0 0
							CHANNELS 3 Yrotation Xrotation Zrotation
							JOINT RightForeArm
							{
								OFFSET -25.1836 0 0
								CHANNELS 3 Yrotation Xrotation Zrotation
								JOINT RightHand
								{
									OFFSET -23.8595 0 0
									CHANNELS 3 Yrotation Xrotation Zrotation
									End Site
									{
										OFFSET -15 0 0
									}
								}
							}
						}
					}
				}
			}
		}
	}
	JOINT LeftUpLeg
	{
		OFFSET 10.4643 -3.48811 2
		CHANNELS 3 Yrotation Xrotation Zrotation
		JOINT LeftLeg
		{
			OFFSET -0 -38.892 2.44168
			CHANNELS 3 Yrotation Xrotation Zrotation
			JOINT LeftFoot
			{
				OFFSET -0 -41.3956 -2.44168
				CHANNELS 3 Yrotation Xrotation Zrotation
				JOINT LeftToeBase
				{
					OFFSET -0 -6.7338 15.6965
					CHANNELS 3 Yrotation Xrotation Zrotation
					End Site
					{
						OFFSET 0 0 5
					}
				}
			}
		}
	}
	JOINT RightUpLeg
	{
		OFFSET -10.4643 -3.48811 2
		CHANNELS 3 Yrotation Xrotation Zrotation
		JOINT RightLeg
		{
			OFFSET -0 -38.892 2.44168
			CHANNELS 3 Yrotation Xrotation Zrotation
			JOINT RightFoot
			{
				OFFSET -0 -41.3956 -2.44168
				CHANNELS 3 Yrotation Xrotation Zrotation
				JOINT RightToeBase
				{
					OFFSET -0 -6.7338 15.6965
					CHANNELS 3 Yrotation Xrotation Zrotation
					End Site
					{
						OFFSET 0 0 5
					}
				}
			}
		}
	}
}
MOTION
Frames: 9
Frame Time: 0.00833333
0 93.707184 0 0 0 0 0 0 0 0 0 0 0 0 0 0 0 0 0 0 0 0 0 0 0 0 0 0 0 0 0 0 0 0 0 0 0 0 0 0 0 0 0 0 0 0 0 0 0 0 0 0 0 0 0 0 0 0 0 0 0 0 0 0 0 0 0 0 0 0 0 0
-82.301447 93.186224 23.732744 -1.870553 -1.517693 -0.259332 0.155141 1.016563 0.027423 0.138697 1.157556 0.026528 0.074507 1.141175 0.038371 0.057744 1.268912 0.044636 0.716464 1.295226 0.329370 0.050110 12.645506 -1.830496 15.575806 12.478977 2.942992 -46.227499 2.936456 -58.839155 -20.820524 -5.599955 2.415282 7.859374 -3.514196 -15.918093 -8.888099 3.899937 -2.656533 33.508268 8.816736 72.186002 23.131214 7.500052 -10.292193 -18.222758 -5.244390 26.943130 1.915779 2.750736 9.123439 0.000000 2.880303 0.000000 7.911971 1.715748 -4.968294 0.000000 -3.941594 0.000000 -4.676638 2.593601 -6.491454 0.000000 2.356070 0.000000 -0.829517 -0.778297 4.835505 0.000000 -2.938810 0.000000
-82.295453 93.184668 23.728540 -1.890295 -1.529110 -0.265110 0.161940 1.024564 0.047829 0.145657 1.123432 0.017160 0.075077 1.154910 0.018331 0.054809 1.268841 0.056687 0.718081 1.373242 0.361710 0.046936 12.652253 -1.819827 15.591327 12.492123 2.937763 -46.303700 2.928654 -58.838567 -20.810285 -5.524032 2.460636 7.867008 -3.626353 -15.972409 -8.879565 3.905066 -2.655896 33.501652 8.819932 72.178424 23.146833 7.506412 -10.305568 -18.241280 -5.284620 26.954957 1.918779 2.755720 9.126069 0.000000 2.898895 0.000000 7.927670 1.699526 -4.983188 0.000000 -3.927801 0.000000 -4.628923 2.593970 -6.489498 0.000000 2.378354 0.000000 -0.860125 -0.811831 4.880738 0.000000 -2.877556 0.000000
-82.297821 93.183386 23.727325 -1.895224 -1.541352 -0.254096 0.155035 1.013261 -0.002988 0.137564 1.112184 0.024403 0.080309 1.155934 0.057171 0.066469 1.290636 0.044466 0.723337 1.420545 0.394910 0.046482 12.689897 -1.798575 15.546192 12.475347 2.942102 -46.275374 2.917651 -58.867175 -20.806553 -5.482141 2.453870 7.845907 -3.692877 -15.986980 -8.855440 3.914595 -2.647880 33.453863 8.816113 72.162373 23.163855 7.526193 -10.323903 -18.255179 -5.260908 26.984279 1.962653 2.746417 9.120653 0.000000 2.926102 0.000000 7.883572 1.700725 -4.992104 0.000000 -3.993006 0.000000 -4.645163 2.590869 -6.499013 0.000000 2.398883 0.000000 -0.842070 -0.797664 4.851509 0.000000 -2.969074 0.000000
-82.293170 93.180267 23.731802 -1.890444 -1.543246 -0.255866 0.149220 0.983995 -0.015608 0.131657 1.119586 0.023421 0.064159 1.157384 0.064485 0.050926 1.292700 0.048808 0.758384 1.456253 0.417747 0.060344 12.733234 -1.776799 15.587927 12.501582 2.942465 -46.319950 2.927245 -58.858466 -20.840511 -5.404443 2.476288 7.854560 -3.761097 -16.037317 -8.854299 3.916593 -2.635123 33.493966 8.820745 72.133852 23.179818 7.442711 -10.339933 -18.246598 -5.220462 27.011070 1.943270 2.754602 9.115648 0.000000 2.929009 0.000000 7.907342 1.681101 -4.975917 0.000000 -3.923042 0.000000 -4.640549 2.591351 -6.503582 0.000000 2.407159 0.000000 -0.835613 -0.802573 4.856469 0.000000 -2.963304 0.000000
-82.290417 93.181610 23.730971 -1.894335 -1.553128 -0.263111 0.139362 0.998581 -0.001824 0.122058 1.095164 0.008389 0.074777 1.163132 0.042358 0.057126 1.290296 0.070957 0.764827 1.472120 0.453206 0.056626 12.782623 -1.786190 15.550333 12.489897 2.942400 -46.254368 2.902769 -58.898715 -20.826840 -5.448735 2.485046 7.819309 -3.649286 -16.015500 -8.878322 3.943504 -2.588784 33.428798 8.798411 72.047205 23.184092 7.569191 -10.297968 -18.246429 -5.266848 27.010744 1.906874 2.762505 9.118772 0.000000 2.937897 0.000000 7.942916 1.681774 -4.932626 0.000000 -3.963383 0.000000 -4.633445 2.587164 -6.499668 0.000000 2.438462 0.000000 -0.839883 -0.829869 4.925467 0.000000 -2.902059 0.000000
-82.289526 93.178528 23.733701 -1.897788 -1.555668 -0.258428 0.142132 0.948627 -0.022249 0.124941 1.120970 -0.001883 0.054857 1.174153 0.044765 0.036613 1.297213 0.083492 0.798363 1.484878 0.487191 0.065658 12.852700 -1.786121 15.549776 12.452544 2.947605 -46.242742 2.934819 -58.955860 -20.842543 -5.355722 2.522263 7.822389 -3.737290 -16.075919 -8.859075 3.961148 -2.555754 33.419372 8.783159 71.987717 23.180308 7.570020 -10.298663 -18.241015 -5.270273 27.036503 1.942525 2.756906 9.117159 0.000000 2.954195 0.000000 7.896056 1.661891 -4.964991 0.000000 -3.946066 0.000000 -4.632179 2.590746 -6.502600 0.000000 2.438168 0.000000 -0.844970 -0.833479 4.870723 0.000000 -2.916091 0.000000
-82.280170 93.176117 23.731844 -1.907001 -1.563788 -0.244141 0.137841 0.947138 -0.028941 0.119682 1.111234 -0.004257 0.051553 1.176077 0.038602 0.033436 1.309930 0.086223 0.805048 1.472812 0.456317 0.077034 12.923818 -1.738703 15.515246 12.444299 2.938368 -46.152324 2.918053 -58.981038 -20.848601 -5.344394 2.509434 7.795662 -3.682474 -16.114553 -8.841843 3.926620 -2.542991 33.361252 8.788964 71.979469 23.175137 7.669184 -10.287572 -18.239591 -5.351861 27.024525 1.917022 2.761879 9.092717 0.000000 2.969608 0.000000 7.950393 1.663713 -4.928687 0.000000 -3.952235 0.000000 -4.613824 2.593086 -6.523822 0.000000 2.444828 0.000000 -0.850439 -0.832826 4.850093 0.000000 -2.963647 0.000000
-82.274902 93.177142 23.733687 -1.919259 -1.570211 -0.247672 0.133255 0.930723 -0.039209 0.114689 1.121975 -0.000979 0.060856 1.179361 0.053239 0.043735 1.308306 0.098389 0.799462 1.448339 0.439838 0.076077 13.004708 -1.733901 15.478958 12.429480 2.894958 -46.171054 2.997997 -59.000249 -20.881483 -5.352456 2.531601 7.813551 -3.723277 -16.120586 -8.876133 3.935941 -2.538999 33.411315 8.788100 71.935654 23.156392 7.619741 -10.294896 -18.220650 -5.384588 26.999462 1.932277 2.763567 9.093966 0.000000 2.987480 0.000000 7.945092 1.635253 -4.956097 0.000000 -3.910580 0.000000 -4.598449 2.590353 -6.526274 0.000000 2.457359 0.000000 -0.839724 -0.823582 4.872165 0.000000 -2.936177 0.000000
